HIERARCHY
ROOT Hips
{
    OFFSET 0.000000 0.000000 0.000000
    CHANNELS 6 Xposition Yposition Zposition Zrotation Xrotation Yrotation
        JOINT Chest
        {
            OFFSET -0.000000 26.747992 -0.000000
            CHANNELS 3 Zrotation Xrotation Yrotation
            JOINT Neck
            {
                OFFSET -0.000000 19.168715 0.000000
                CHANNELS 3 Zrotation Xrotation Yrotation
                JOINT Head
                {
                    OFFSET -0.000000 10.083335 0.000000
                    CHANNELS 3 Zrotation Xrotation Yrotation
                    End Site
                    {
                        OFFSET -0.000000 15.583343 0.000000
                    }
                }
            }
            JOINT LeftCollar
            {
                OFFSET -0.000000 19.168715 0.000000
                CHANNELS 3 Zrotation Xrotation Yrotation
                JOINT LeftShoulder
                {
                    OFFSET 19.500000 -0.000000 0.000000
                    CHANNELS 3 Zrotation Xrotation Yrotation
                    JOINT LeftElbow
                    {
                        OFFSET 19.022890 0.000000 0.000000
                        CHANNELS 3 Zrotation Xrotation Yrotation
                        JOINT LeftWrist
                        {
                            OFFSET 24.768559 0.000000 0.000000
                            CHANNELS 3 Zrotation Xrotation Yrotation
                            End Site
                            {
                                OFFSET 0.000000 -13.750003 0.000000
                            }
                        }
                    }
                }
            }
            JOINT RightCollar
            {
                OFFSET -0.000000 19.168715 0.000000
                CHANNELS 3 Zrotation Xrotation Yrotation
                JOINT RightShoulder
                {
                    OFFSET -19.500000 0.000000 0.000000
                    CHANNELS 3 Zrotation Xrotation Yrotation
                    JOINT RightElbow
                    {
                        OFFSET -19.022890 0.000000 0.000000
                        CHANNELS 3 Zrotation Xrotation Yrotation
                        JOINT RightWrist
                        {
                            OFFSET -24.768559 0.000000 0.000000
                            CHANNELS 3 Zrotation Xrotation Yrotation
                            End Site
                            {
                                OFFSET -0.000000 -13.750003 0.000000
                            }
                        }
                    }
                }
            }
        }
    JOINT LeftHip
    {
        OFFSET 11.000002 0.000000 0.000000
        CHANNELS 3 Zrotation Xrotation Yrotation
        JOINT LeftKnee
        {
            OFFSET -0.000000 -39.837296 0.000000
            CHANNELS 3 Zrotation Xrotation Yrotation
            JOINT LeftAnkle
            {
                OFFSET -0.000000 -38.248398 0.000000
                CHANNELS 3 Zrotation Xrotation Yrotation
                End Site
                {
                    OFFSET -0.000000 -4.583334 15.583343
                }
            }
        }
    }
    JOINT RightHip
    {
        OFFSET -11.000002 0.000000 0.000000
        CHANNELS 3 Zrotation Xrotation Yrotation
        JOINT RightKnee
        {
            OFFSET -0.000000 -39.837296 0.000000
            CHANNELS 3 Zrotation Xrotation Yrotation
            JOINT RightAnkle
            {
                OFFSET -0.000000 -38.248398 0.000000
                CHANNELS 3 Zrotation Xrotation Yrotation
                End Site
                {
                    OFFSET -0.000000 -4.583334 15.583343
                }
            }
        }
    }
}
MOTION
Frames:    5
Frame Time:    0.010000
-60.476273    84.175835    -17.835028    0.041063    -1.348372    45.293156    -4.217774    10.078997    4.838249    -2.034905    -2.436835    1.055698    6.074527    -23.633432    2.306582    -23.270113    -3.482919    16.798754    15.085635    49.587601    -78.296883    7.275500    -4.439747    -63.194622    166.501404    40.384583    52.136967    17.927528    0.785915    5.156409    40.096764    21.198158    15.071727    24.946205    16.226475    65.600639    -76.115997    -14.736485    14.629908    6.269353    -1.914090    2.065950    2.701703    24.687231    12.581189    -8.452786    -17.313923    1.477928    -6.608171    -17.848082    -1.493558    -9.862739    30.966860    -1.258112    13.721692    -7.606761    13.296320    
-60.632278    84.197479    -17.244274    -0.085018    -1.631096    45.738163    -4.086264    10.473597    4.828198    -1.115056    -1.669343    -0.210534    4.973573    -24.609694    0.901801    -22.895309    -3.140263    14.303673    15.222577    50.766388    -78.319893    7.369767    -4.508775    -62.738564    166.709015    39.456158    52.206688    18.493528    0.721484    3.783633    40.038136    21.543203    14.462216    23.674129    15.036718    66.504250    -74.123596    -14.830957    14.676022    6.857930    -1.799965    2.514262    3.197503    24.741455    11.818442    -9.052383    -17.028809    1.431153    -6.050515    -17.857166    -1.929305    -9.957696    31.826569    -0.369470    12.877469    -8.116018    12.572971    
-60.811275    84.221588    -16.696480    -0.427748    -1.834720    46.106457    -3.811653    10.720241    4.735188    -1.045958    -2.512521    -0.386636    5.034205    -24.086031    0.704430    -22.575134    -2.958931    14.241163    15.189848    50.567978    -78.784271    7.883878    -4.971274    -61.927868    165.876205    39.196175    52.266594    18.433838    0.683083    3.995222    39.843266    21.819342    15.112931    23.183577    14.896003    66.295792    -74.413467    -14.923876    13.842359    7.676454    -2.096311    3.337250    3.560849    25.083036    10.715850    -8.571359    -16.865648    1.406163    -5.372731    -17.931574    -2.859331    -10.404631    32.299145    1.243965    12.612813    -8.864277    11.562199    
-60.941719    84.253441    -16.287432    -0.631456    -1.966197    46.427574    -3.657334    10.891924    4.700728    -0.977271    -3.006464    -0.520091    5.038932    -23.833639    0.574700    -22.400969    -2.853647    14.188189    15.338401    50.517899    -79.184517    8.327646    -5.219549    -61.406914    165.569031    38.994232    52.365917    18.404001    0.680937    4.232263    39.787285    22.124075    15.225676    22.640156    14.587591    66.415573    -74.115616    -15.155550    13.492069    8.192119    -2.272764    3.799457    3.854862    25.267811    10.066591    -8.567939    -16.627831    1.355739    -4.986692    -17.922083    -3.393831    -10.495663    32.598293    1.869009    12.279545    -9.218177    11.123653    
-61.090755    84.296165    -15.829275    -0.875856    -2.081092    46.819466    -3.467989    11.009656    4.657457    -0.905083    -3.537612    -0.674618    5.009179    -23.504721    0.397215    -22.210423    -2.805650    14.121494    15.640422    50.539471    -79.755669    8.863013    -5.525435    -60.830276    165.206131    38.804745    52.489002    18.323654    0.702896    4.449136    39.738796    22.385559    15.370355    22.136597    14.298552    66.499664    -73.871223    -15.451905    13.182116    8.757457    -2.544195    4.281039    4.174518    25.498554    9.400119    -8.553178    -16.296066    1.283587    -4.604172    -17.879068    -4.048192    -10.542551    32.801449    2.396223    11.927402    -9.542312    10.809362    
